<mxfile host="app.diagrams.net" agent="Mozilla/5.0 (Windows NT 10.0; Win64; x64) AppleWebKit/537.36 (KHTML, like Gecko) Chrome/134.0.0.0 Safari/537.36" version="26.1.0">
  <diagram name="Page-1" id="c4acf3e9-155e-7222-9cf6-157b1a14988f">
    <mxGraphModel dx="1054" dy="448" grid="1" gridSize="10" guides="1" tooltips="1" connect="1" arrows="1" fold="1" page="1" pageScale="1" pageWidth="850" pageHeight="1100" background="none" math="0" shadow="0">
      <root>
        <mxCell id="0" />
        <mxCell id="1" parent="0" />
        <mxCell id="17acba5748e5396b-1" value="frame" style="shape=umlFrame;whiteSpace=wrap;html=1;rounded=0;shadow=0;comic=0;labelBackgroundColor=none;strokeWidth=1;fontFamily=Verdana;fontSize=10;align=center;" parent="1" vertex="1">
          <mxGeometry x="40" y="20" width="650" height="760" as="geometry" />
        </mxCell>
        <mxCell id="ffW8OTupvuMMwtHfLhBm-6" value="&lt;i style=&quot;text-wrap-mode: nowrap;&quot;&gt;&amp;lt;&amp;lt;Interface&amp;gt;&amp;gt;&lt;/i&gt;&lt;br style=&quot;text-wrap-mode: nowrap;&quot;&gt;&lt;span style=&quot;text-wrap-mode: nowrap;&quot;&gt;&lt;b&gt;Drink&lt;/b&gt;&lt;/span&gt;" style="swimlane;fontStyle=0;childLayout=stackLayout;horizontal=1;startSize=26;fillColor=none;horizontalStack=0;resizeParent=1;resizeParentMax=0;resizeLast=0;collapsible=1;marginBottom=0;whiteSpace=wrap;html=1;" vertex="1" parent="1">
          <mxGeometry x="80" y="80" width="210" height="140" as="geometry">
            <mxRectangle x="80" y="80" width="100" height="30" as="alternateBounds" />
          </mxGeometry>
        </mxCell>
        <mxCell id="ffW8OTupvuMMwtHfLhBm-9" value="&lt;div&gt;+ getName(): String&lt;/div&gt;&lt;div&gt;+ setName(name: String)&amp;nbsp;&lt;/div&gt;+ getUnitPrice(): double&amp;nbsp; &amp;nbsp;&lt;div&gt;&lt;div&gt;&lt;span style=&quot;background-color: transparent; color: light-dark(rgb(0, 0, 0), rgb(255, 255, 255));&quot;&gt;+ setUnitPrice(unitPrice: double)&lt;/span&gt;&lt;/div&gt;&lt;div&gt;+ getInvoice(): double&amp;nbsp; &amp;nbsp;&lt;/div&gt;&lt;div&gt;+ setInvoice(invoice: double)&amp;nbsp; &amp;nbsp;&lt;/div&gt;&lt;div&gt;+ calculatePrice(): double&amp;nbsp; &amp;nbsp;&lt;/div&gt;&lt;/div&gt;" style="text;strokeColor=none;fillColor=none;align=left;verticalAlign=top;spacingLeft=4;spacingRight=4;overflow=hidden;rotatable=0;points=[[0,0.5],[1,0.5]];portConstraint=eastwest;whiteSpace=wrap;html=1;" vertex="1" parent="ffW8OTupvuMMwtHfLhBm-6">
          <mxGeometry y="26" width="210" height="114" as="geometry" />
        </mxCell>
        <mxCell id="ffW8OTupvuMMwtHfLhBm-17" value="&lt;span style=&quot;text-wrap-mode: nowrap;&quot;&gt;&lt;i&gt;&amp;lt;&amp;lt;class&amp;gt;&amp;gt;&lt;/i&gt;&lt;/span&gt;&lt;div&gt;&lt;i style=&quot;&quot;&gt;&lt;span style=&quot;text-wrap-mode: nowrap;&quot;&gt;&lt;b&gt;Invoice&lt;/b&gt;&lt;/span&gt;&lt;/i&gt;&lt;/div&gt;" style="swimlane;fontStyle=0;childLayout=stackLayout;horizontal=1;startSize=26;fillColor=none;horizontalStack=0;resizeParent=1;resizeParentMax=0;resizeLast=0;collapsible=1;marginBottom=0;whiteSpace=wrap;html=1;" vertex="1" parent="1">
          <mxGeometry x="410" y="80" width="220" height="50" as="geometry">
            <mxRectangle x="80" y="80" width="100" height="30" as="alternateBounds" />
          </mxGeometry>
        </mxCell>
        <mxCell id="ffW8OTupvuMMwtHfLhBm-18" value="+ getTotal(drinks: List&amp;lt;Drink&amp;gt;): double" style="text;strokeColor=none;fillColor=none;align=left;verticalAlign=top;spacingLeft=4;spacingRight=4;overflow=hidden;rotatable=0;points=[[0,0.5],[1,0.5]];portConstraint=eastwest;whiteSpace=wrap;html=1;" vertex="1" parent="ffW8OTupvuMMwtHfLhBm-17">
          <mxGeometry y="26" width="220" height="24" as="geometry" />
        </mxCell>
        <mxCell id="ffW8OTupvuMMwtHfLhBm-31" value="&amp;nbsp;Alcohol" style="swimlane;fontStyle=1;align=center;verticalAlign=top;childLayout=stackLayout;horizontal=1;startSize=26;horizontalStack=0;resizeParent=1;resizeParentMax=0;resizeLast=0;collapsible=1;marginBottom=0;whiteSpace=wrap;html=1;" vertex="1" parent="1">
          <mxGeometry x="80" y="320" width="140" height="130" as="geometry" />
        </mxCell>
        <mxCell id="ffW8OTupvuMMwtHfLhBm-32" value="&amp;nbsp;- name: String&amp;nbsp;&lt;br&gt;&lt;div&gt;- unitPrice: double&lt;/div&gt;&lt;div&gt;- invoice: double&lt;/div&gt;&lt;div&gt;- promo: double&amp;nbsp;&lt;/div&gt;" style="text;strokeColor=none;fillColor=none;align=left;verticalAlign=top;spacingLeft=4;spacingRight=4;overflow=hidden;rotatable=0;points=[[0,0.5],[1,0.5]];portConstraint=eastwest;whiteSpace=wrap;html=1;" vertex="1" parent="ffW8OTupvuMMwtHfLhBm-31">
          <mxGeometry y="26" width="140" height="64" as="geometry" />
        </mxCell>
        <mxCell id="ffW8OTupvuMMwtHfLhBm-33" value="" style="line;strokeWidth=1;fillColor=none;align=left;verticalAlign=middle;spacingTop=-1;spacingLeft=3;spacingRight=3;rotatable=0;labelPosition=right;points=[];portConstraint=eastwest;strokeColor=inherit;" vertex="1" parent="ffW8OTupvuMMwtHfLhBm-31">
          <mxGeometry y="90" width="140" height="8" as="geometry" />
        </mxCell>
        <mxCell id="ffW8OTupvuMMwtHfLhBm-34" value="&amp;nbsp;+ calculatePrice()" style="text;strokeColor=none;fillColor=none;align=left;verticalAlign=top;spacingLeft=4;spacingRight=4;overflow=hidden;rotatable=0;points=[[0,0.5],[1,0.5]];portConstraint=eastwest;whiteSpace=wrap;html=1;" vertex="1" parent="ffW8OTupvuMMwtHfLhBm-31">
          <mxGeometry y="98" width="140" height="32" as="geometry" />
        </mxCell>
        <mxCell id="ffW8OTupvuMMwtHfLhBm-35" value="Energizing" style="swimlane;fontStyle=1;align=center;verticalAlign=top;childLayout=stackLayout;horizontal=1;startSize=26;horizontalStack=0;resizeParent=1;resizeParentMax=0;resizeLast=0;collapsible=1;marginBottom=0;whiteSpace=wrap;html=1;" vertex="1" parent="1">
          <mxGeometry x="220" y="320" width="140" height="130" as="geometry" />
        </mxCell>
        <mxCell id="ffW8OTupvuMMwtHfLhBm-36" value="&amp;nbsp;- name: String&amp;nbsp;&lt;br&gt;&lt;div&gt;- unitPrice: double&lt;/div&gt;&lt;div&gt;- invoice: double&lt;/div&gt;&lt;div&gt;&amp;nbsp;&lt;/div&gt;" style="text;strokeColor=none;fillColor=none;align=left;verticalAlign=top;spacingLeft=4;spacingRight=4;overflow=hidden;rotatable=0;points=[[0,0.5],[1,0.5]];portConstraint=eastwest;whiteSpace=wrap;html=1;" vertex="1" parent="ffW8OTupvuMMwtHfLhBm-35">
          <mxGeometry y="26" width="140" height="64" as="geometry" />
        </mxCell>
        <mxCell id="ffW8OTupvuMMwtHfLhBm-37" value="" style="line;strokeWidth=1;fillColor=none;align=left;verticalAlign=middle;spacingTop=-1;spacingLeft=3;spacingRight=3;rotatable=0;labelPosition=right;points=[];portConstraint=eastwest;strokeColor=inherit;" vertex="1" parent="ffW8OTupvuMMwtHfLhBm-35">
          <mxGeometry y="90" width="140" height="8" as="geometry" />
        </mxCell>
        <mxCell id="ffW8OTupvuMMwtHfLhBm-38" value="&amp;nbsp;+ calculatePrice()" style="text;strokeColor=none;fillColor=none;align=left;verticalAlign=top;spacingLeft=4;spacingRight=4;overflow=hidden;rotatable=0;points=[[0,0.5],[1,0.5]];portConstraint=eastwest;whiteSpace=wrap;html=1;" vertex="1" parent="ffW8OTupvuMMwtHfLhBm-35">
          <mxGeometry y="98" width="140" height="32" as="geometry" />
        </mxCell>
        <mxCell id="ffW8OTupvuMMwtHfLhBm-39" value="Sugary" style="swimlane;fontStyle=1;align=center;verticalAlign=top;childLayout=stackLayout;horizontal=1;startSize=26;horizontalStack=0;resizeParent=1;resizeParentMax=0;resizeLast=0;collapsible=1;marginBottom=0;whiteSpace=wrap;html=1;" vertex="1" parent="1">
          <mxGeometry x="360" y="320" width="140" height="130" as="geometry" />
        </mxCell>
        <mxCell id="ffW8OTupvuMMwtHfLhBm-40" value="&amp;nbsp;- name: String&amp;nbsp;&lt;br&gt;&lt;div&gt;- unitPrice: double&lt;/div&gt;&lt;div&gt;- invoice: double&lt;/div&gt;&lt;div&gt;- expiration: double&lt;/div&gt;" style="text;strokeColor=none;fillColor=none;align=left;verticalAlign=top;spacingLeft=4;spacingRight=4;overflow=hidden;rotatable=0;points=[[0,0.5],[1,0.5]];portConstraint=eastwest;whiteSpace=wrap;html=1;" vertex="1" parent="ffW8OTupvuMMwtHfLhBm-39">
          <mxGeometry y="26" width="140" height="64" as="geometry" />
        </mxCell>
        <mxCell id="ffW8OTupvuMMwtHfLhBm-41" value="" style="line;strokeWidth=1;fillColor=none;align=left;verticalAlign=middle;spacingTop=-1;spacingLeft=3;spacingRight=3;rotatable=0;labelPosition=right;points=[];portConstraint=eastwest;strokeColor=inherit;" vertex="1" parent="ffW8OTupvuMMwtHfLhBm-39">
          <mxGeometry y="90" width="140" height="8" as="geometry" />
        </mxCell>
        <mxCell id="ffW8OTupvuMMwtHfLhBm-42" value="&amp;nbsp;+ calculatePrice()" style="text;strokeColor=none;fillColor=none;align=left;verticalAlign=top;spacingLeft=4;spacingRight=4;overflow=hidden;rotatable=0;points=[[0,0.5],[1,0.5]];portConstraint=eastwest;whiteSpace=wrap;html=1;" vertex="1" parent="ffW8OTupvuMMwtHfLhBm-39">
          <mxGeometry y="98" width="140" height="32" as="geometry" />
        </mxCell>
        <mxCell id="ffW8OTupvuMMwtHfLhBm-43" value="&lt;span style=&quot;font-weight: normal;&quot;&gt;&amp;lt;&amp;lt;class&amp;gt;&amp;gt;&lt;/span&gt;&lt;div&gt;DrinkGUI&lt;/div&gt;" style="swimlane;fontStyle=1;align=center;verticalAlign=top;childLayout=stackLayout;horizontal=1;startSize=35;horizontalStack=0;resizeParent=1;resizeParentMax=0;resizeLast=0;collapsible=1;marginBottom=0;whiteSpace=wrap;html=1;" vertex="1" parent="1">
          <mxGeometry x="80" y="489" width="190" height="200" as="geometry" />
        </mxCell>
        <mxCell id="ffW8OTupvuMMwtHfLhBm-44" value="&lt;div&gt;- beverageCombo: JComboBox&amp;nbsp;&lt;/div&gt;&lt;div&gt;&lt;span style=&quot;background-color: transparent; color: light-dark(rgb(0, 0, 0), rgb(255, 255, 255));&quot;&gt;- quantitySpinner: JSpinner&lt;/span&gt;&lt;/div&gt;&lt;div&gt;&lt;span style=&quot;background-color: transparent; color: light-dark(rgb(0, 0, 0), rgb(255, 255, 255));&quot;&gt;- priceLabel: JLabel&lt;/span&gt;&lt;/div&gt;&lt;div&gt;&lt;span style=&quot;background-color: transparent; color: light-dark(rgb(0, 0, 0), rgb(255, 255, 255));&quot;&gt;- orderTextArea: JTextArea&amp;nbsp;&lt;/span&gt;&lt;/div&gt;&lt;div&gt;&lt;span style=&quot;background-color: transparent; color: light-dark(rgb(0, 0, 0), rgb(255, 255, 255));&quot;&gt;- orderList: List&amp;lt;Drink&amp;gt;&lt;/span&gt;&lt;span style=&quot;background-color: transparent; color: light-dark(rgb(0, 0, 0), rgb(255, 255, 255));&quot;&gt;&amp;nbsp;&lt;/span&gt;&lt;/div&gt;" style="text;strokeColor=none;fillColor=none;align=left;verticalAlign=top;spacingLeft=4;spacingRight=4;overflow=hidden;rotatable=0;points=[[0,0.5],[1,0.5]];portConstraint=eastwest;whiteSpace=wrap;html=1;" vertex="1" parent="ffW8OTupvuMMwtHfLhBm-43">
          <mxGeometry y="35" width="190" height="85" as="geometry" />
        </mxCell>
        <mxCell id="ffW8OTupvuMMwtHfLhBm-45" value="" style="line;strokeWidth=1;fillColor=none;align=left;verticalAlign=middle;spacingTop=-1;spacingLeft=3;spacingRight=3;rotatable=0;labelPosition=right;points=[];portConstraint=eastwest;strokeColor=inherit;" vertex="1" parent="ffW8OTupvuMMwtHfLhBm-43">
          <mxGeometry y="120" width="190" height="8" as="geometry" />
        </mxCell>
        <mxCell id="ffW8OTupvuMMwtHfLhBm-46" value="&lt;div&gt;+ updatePriceLabel(): void&amp;nbsp;&lt;/div&gt;&lt;div&gt;+ agregarBebida(): void&lt;/div&gt;&lt;div&gt;&lt;span style=&quot;background-color: transparent; color: light-dark(rgb(0, 0, 0), rgb(255, 255, 255));&quot;&gt;+ calcularTotal(): void&lt;/span&gt;&lt;/div&gt;&lt;div&gt;&lt;span style=&quot;background-color: transparent; color: light-dark(rgb(0, 0, 0), rgb(255, 255, 255));&quot;&gt;+ main(String[] args): void&lt;/span&gt;&lt;/div&gt;" style="text;strokeColor=none;fillColor=none;align=left;verticalAlign=top;spacingLeft=4;spacingRight=4;overflow=hidden;rotatable=0;points=[[0,0.5],[1,0.5]];portConstraint=eastwest;whiteSpace=wrap;html=1;" vertex="1" parent="ffW8OTupvuMMwtHfLhBm-43">
          <mxGeometry y="128" width="190" height="72" as="geometry" />
        </mxCell>
        <mxCell id="ffW8OTupvuMMwtHfLhBm-47" value="&lt;div&gt;&amp;lt;&amp;lt;extends&amp;gt;&amp;gt;&amp;nbsp;&lt;/div&gt;&lt;div&gt;&lt;span style=&quot;background-color: transparent; color: light-dark(rgb(0, 0, 0), rgb(255, 255, 255));&quot;&gt;JFrame&amp;nbsp;&lt;/span&gt;&lt;/div&gt;" style="html=1;whiteSpace=wrap;" vertex="1" parent="1">
          <mxGeometry x="360" y="580" width="110" height="50" as="geometry" />
        </mxCell>
      </root>
    </mxGraphModel>
  </diagram>
</mxfile>
